<svg width="79" height="114" viewBox="0 0 79 114" fill="none" xmlns="http://www.w3.org/2000/svg">
<path d="M42.6119 34.2187C43.5381 34.3994 44.3893 34.8523 45.0565 35.5196C45.7237 36.1868 46.1767 37.038 46.3574 37.9641M42.6119 30.4258C44.5361 30.6395 46.3305 31.5012 47.7003 32.8694C49.0702 34.2375 49.9341 36.0307 50.1503 37.9546M49.2021 45.5214V48.3661C49.2031 48.6302 49.149 48.8916 49.0432 49.1335C48.9374 49.3755 48.7823 49.5927 48.5877 49.7712C48.3931 49.9498 48.1634 50.0857 47.9132 50.1703C47.663 50.2549 47.398 50.2863 47.1349 50.2625C44.2171 49.9455 41.4143 48.9484 38.9518 47.3515C36.6607 45.8957 34.7183 43.9533 33.2625 41.6622C31.66 39.1885 30.6627 36.3721 30.3514 33.4411C30.3278 33.1789 30.3589 32.9146 30.443 32.6651C30.527 32.4156 30.6621 32.1863 30.8396 31.9919C31.0171 31.7974 31.2331 31.6421 31.4739 31.5357C31.7148 31.4293 31.9751 31.3742 32.2384 31.374H35.0831C35.5432 31.3695 35.9894 31.5324 36.3383 31.8325C36.6872 32.1326 36.9151 32.5493 36.9795 33.0049C37.0996 33.9153 37.3222 34.8091 37.6433 35.6694C37.7708 36.0088 37.7984 36.3777 37.7228 36.7323C37.6472 37.0869 37.4715 37.4124 37.2166 37.6702L36.0123 38.8744C37.3622 41.2483 39.3277 43.2139 41.7016 44.5637L42.9059 43.3595C43.1637 43.1046 43.4892 42.9289 43.8438 42.8532C44.1984 42.7776 44.5672 42.8052 44.9066 42.9328C45.7669 43.2538 46.6608 43.4765 47.5711 43.5966C48.0317 43.6615 48.4524 43.8935 48.7531 44.2485C49.0538 44.6034 49.2136 45.0564 49.2021 45.5214Z" stroke="#0F1115" stroke-width="1.89644" stroke-linecap="round" stroke-linejoin="round"/>
<circle cx="39.3511" cy="39.4351" r="38.877" stroke="#0F1115" stroke-width="0.94822"/>
<path d="M20.3851 107.48C18.476 107.48 16.9399 106.823 15.7767 105.508C14.6136 104.193 14.032 102.499 14.032 100.426C14.032 98.3774 14.6073 96.6896 15.7578 95.3621C16.9209 94.0219 18.4886 93.3519 20.4609 93.3519C22.0034 93.3519 23.2487 93.7501 24.1969 94.5466C25.1452 95.3431 25.7141 96.3862 25.9037 97.6757H24.2349C24.0705 96.816 23.6533 96.127 22.9832 95.6086C22.3258 95.0903 21.4724 94.8311 20.423 94.8311C18.9691 94.8311 17.8312 95.3558 17.0094 96.4051C16.1876 97.4419 15.7767 98.782 15.7767 100.426C15.7767 102.094 16.2003 103.441 17.0474 104.465C17.9071 105.476 19.0386 105.982 20.442 105.982C21.6557 105.982 22.5913 105.628 23.2487 104.92C23.9188 104.212 24.2981 103.321 24.3866 102.246H26.0744C26.0618 102.916 25.9037 103.605 25.6003 104.313C25.3095 105.009 24.9239 105.59 24.4435 106.058C23.47 107.006 22.1172 107.48 20.3851 107.48ZM35.4615 107.31C34.488 107.31 33.9254 106.823 33.7737 105.849H33.7547C32.9455 106.886 31.8583 107.404 30.4928 107.404C29.5193 107.404 28.7228 107.171 28.1033 106.703C27.4838 106.235 27.174 105.559 27.174 104.674C27.174 104.218 27.2436 103.827 27.3827 103.498C27.5344 103.156 27.724 102.885 27.9516 102.682C28.1792 102.467 28.4889 102.284 28.8808 102.132C29.2854 101.968 29.671 101.848 30.0377 101.772C30.4043 101.684 30.8721 101.595 31.441 101.507C31.8077 101.456 32.0669 101.418 32.2186 101.393C32.3829 101.355 32.5915 101.304 32.8444 101.241C33.0973 101.165 33.2743 101.083 33.3754 100.995C33.4766 100.906 33.5714 100.786 33.6599 100.634C33.7484 100.482 33.7926 100.305 33.7926 100.103C33.7926 99.5469 33.5967 99.1234 33.2047 98.8326C32.8254 98.5291 32.2881 98.3774 31.5928 98.3774C30.0124 98.3774 29.1969 99.0981 29.1463 100.539H27.6671C27.6924 99.5406 28.0338 98.7378 28.6912 98.1309C29.3613 97.524 30.3221 97.2206 31.5738 97.2206C33.9886 97.2206 35.196 98.2573 35.196 100.331V104.996C35.196 105.426 35.2655 105.729 35.4046 105.906C35.5563 106.083 35.8345 106.128 36.239 106.039H36.2959V107.158C36.0431 107.259 35.7649 107.31 35.4615 107.31ZM30.8342 106.229C31.7824 106.229 32.5157 105.957 33.034 105.413C33.5524 104.857 33.8116 104.25 33.8116 103.593V101.924C33.3438 102.215 32.5979 102.455 31.5738 102.644C31.1945 102.72 30.8974 102.783 30.6825 102.834C30.4675 102.872 30.221 102.948 29.9428 103.062C29.6647 103.163 29.4561 103.277 29.317 103.403C29.178 103.529 29.0578 103.7 28.9567 103.915C28.8556 104.117 28.805 104.358 28.805 104.636C28.805 105.698 29.4814 106.229 30.8342 106.229ZM37.4862 107.215V93.6553H39.0224V107.215H37.4862ZM41.2273 107.215V93.6553H42.7634V107.215H41.2273ZM55.7055 107.215H54.1694V105.868H54.1315C53.3603 106.918 52.3741 107.442 51.1731 107.442C50.1616 107.442 49.3588 107.158 48.7646 106.589C48.1704 106.007 47.8732 105.211 47.8732 104.2V97.4102H49.4094V104.162C49.4094 104.794 49.599 105.287 49.9783 105.641C50.3702 105.995 50.9139 106.172 51.6092 106.172C52.3805 106.172 53 105.913 53.4677 105.394C53.9355 104.876 54.1694 104.225 54.1694 103.441V97.4102H55.7055V107.215ZM61.4998 107.499C60.1596 107.499 59.1166 107.202 58.3706 106.608C57.6373 106.001 57.2328 105.141 57.1569 104.029H58.731C58.908 105.483 59.8435 106.21 61.5377 106.21C62.3089 106.21 62.8778 106.064 63.2445 105.774C63.6238 105.47 63.8134 105.078 63.8134 104.598C63.8134 104.079 63.6301 103.706 63.2635 103.479C62.8968 103.251 62.2267 103.036 61.2532 102.834C60.8487 102.746 60.5263 102.676 60.286 102.625C60.0585 102.562 59.7803 102.48 59.4516 102.379C59.1229 102.265 58.8637 102.145 58.6741 102.019C58.4971 101.88 58.3137 101.715 58.1241 101.526C57.9345 101.336 57.7954 101.102 57.7069 100.824C57.631 100.546 57.5931 100.236 57.5931 99.8946C57.5931 99.0602 57.8965 98.4027 58.5034 97.9223C59.1229 97.4419 59.9953 97.2016 61.1205 97.2016C63.4468 97.2016 64.73 98.2257 64.9702 100.274H63.3962C63.3203 99.6291 63.0991 99.1613 62.7324 98.8705C62.3658 98.5671 61.8158 98.4154 61.0825 98.4154C60.4125 98.4154 59.9131 98.5481 59.5844 98.8136C59.2683 99.0665 59.1102 99.4015 59.1102 99.8187C59.1102 100.299 59.2999 100.641 59.6792 100.843C60.0585 101.032 60.7475 101.228 61.7463 101.431C62.3532 101.557 62.8273 101.677 63.1686 101.791C63.5226 101.892 63.8893 102.057 64.2686 102.284C64.6479 102.499 64.926 102.79 65.103 103.156C65.28 103.523 65.3685 103.978 65.3685 104.522C65.3685 105.483 65.0145 106.222 64.3065 106.741C63.5985 107.246 62.6629 107.499 61.4998 107.499Z" fill="#737373"/>
</svg>
