<svg width="79" height="114" viewBox="0 0 79 114" fill="none" xmlns="http://www.w3.org/2000/svg">
<path d="M32.2402 32.3223H47.4117C48.4548 32.3223 49.3082 33.1757 49.3082 34.2187V45.5973C49.3082 46.6404 48.4548 47.4938 47.4117 47.4938H32.2402C31.1971 47.4938 30.3438 46.6404 30.3438 45.5973V34.2187C30.3438 33.1757 31.1971 32.3223 32.2402 32.3223Z" stroke="#0F1115" stroke-width="1.89644" stroke-linecap="round" stroke-linejoin="round"/>
<path d="M49.3082 34.2188L39.826 40.8563L30.3438 34.2188" stroke="#0F1115" stroke-width="1.89644" stroke-linecap="round" stroke-linejoin="round"/>
<circle cx="39.3511" cy="39.4351" r="38.877" stroke="#0F1115" stroke-width="0.94822"/>
<path d="M13.5987 107.215V93.6553H15.7796L20.1794 104.92H20.2173L24.5791 93.6553H26.798V107.215H25.167V96.0638H25.1291C24.8889 96.7718 24.6866 97.3407 24.5222 97.7706L20.8052 107.215H19.4967L15.7796 97.7706L15.1728 96.0638H15.1349V107.215H13.5987ZM36.8126 107.31C35.8391 107.31 35.2765 106.823 35.1248 105.849H35.1059C34.2967 106.886 33.2094 107.404 31.844 107.404C30.8705 107.404 30.074 107.171 29.4545 106.703C28.835 106.235 28.5252 105.559 28.5252 104.674C28.5252 104.218 28.5947 103.827 28.7338 103.498C28.8855 103.156 29.0752 102.885 29.3027 102.682C29.5303 102.467 29.8401 102.284 30.232 102.132C30.6366 101.968 31.0222 101.848 31.3888 101.772C31.7555 101.684 32.2233 101.595 32.7922 101.507C33.1588 101.456 33.418 101.418 33.5697 101.393C33.7341 101.355 33.9427 101.304 34.1956 101.241C34.4484 101.165 34.6254 101.083 34.7266 100.995C34.8277 100.906 34.9225 100.786 35.011 100.634C35.0995 100.482 35.1438 100.305 35.1438 100.103C35.1438 99.5469 34.9478 99.1234 34.5559 98.8326C34.1766 98.5291 33.6393 98.3774 32.9439 98.3774C31.3635 98.3774 30.5481 99.0981 30.4975 100.539H29.0183C29.0436 99.5406 29.3849 98.7378 30.0424 98.1309C30.7124 97.524 31.6733 97.2206 32.9249 97.2206C35.3397 97.2206 36.5471 98.2573 36.5471 100.331V104.996C36.5471 105.426 36.6167 105.729 36.7558 105.906C36.9075 106.083 37.1856 106.128 37.5902 106.039H37.6471V107.158C37.3942 107.259 37.1161 107.31 36.8126 107.31ZM32.1853 106.229C33.1336 106.229 33.8668 105.957 34.3852 105.413C34.9036 104.857 35.1627 104.25 35.1627 103.593V101.924C34.695 102.215 33.949 102.455 32.9249 102.644C32.5457 102.72 32.2485 102.783 32.0336 102.834C31.8187 102.872 31.5722 102.948 31.294 103.062C31.0159 103.163 30.8073 103.277 30.6682 103.403C30.5291 103.529 30.409 103.7 30.3079 103.915C30.2067 104.117 30.1561 104.358 30.1561 104.636C30.1561 105.698 30.8325 106.229 32.1853 106.229ZM38.7805 107.215V97.4102H40.3166V107.215H38.7805ZM38.7805 95.5517V93.6553H40.3166V95.5517H38.7805ZM42.4673 107.215V93.6553H44.0034V107.215H42.4673ZM56.9456 107.215H55.4095V105.868H55.3715C54.6003 106.918 53.6142 107.442 52.4131 107.442C51.4017 107.442 50.5988 107.158 50.0046 106.589C49.4104 106.007 49.1133 105.211 49.1133 104.2V97.4102H50.6494V104.162C50.6494 104.794 50.839 105.287 51.2183 105.641C51.6103 105.995 52.1539 106.172 52.8493 106.172C53.6205 106.172 54.24 105.913 54.7078 105.394C55.1756 104.876 55.4095 104.225 55.4095 103.441V97.4102H56.9456V107.215ZM62.7398 107.499C61.3997 107.499 60.3566 107.202 59.6107 106.608C58.8774 106.001 58.4728 105.141 58.397 104.029H59.971C60.148 105.483 61.0836 106.21 62.7777 106.21C63.5489 106.21 64.1179 106.064 64.4845 105.774C64.8638 105.47 65.0535 105.078 65.0535 104.598C65.0535 104.079 64.8701 103.706 64.5035 103.479C64.1368 103.251 63.4668 103.036 62.4933 102.834C62.0887 102.746 61.7663 102.676 61.5261 102.625C61.2985 102.562 61.0204 102.48 60.6916 102.379C60.3629 102.265 60.1037 102.145 59.9141 102.019C59.7371 101.88 59.5538 101.715 59.3641 101.526C59.1745 101.336 59.0354 101.102 58.9469 100.824C58.8711 100.546 58.8331 100.236 58.8331 99.8946C58.8331 99.0602 59.1366 98.4027 59.7434 97.9223C60.3629 97.4419 61.2353 97.2016 62.3605 97.2016C64.6868 97.2016 65.9701 98.2257 66.2103 100.274H64.6362C64.5604 99.6291 64.3391 99.1613 63.9725 98.8705C63.6058 98.5671 63.0559 98.4154 62.3226 98.4154C61.6525 98.4154 61.1531 98.5481 60.8244 98.8136C60.5083 99.0665 60.3503 99.4015 60.3503 99.8187C60.3503 100.299 60.5399 100.641 60.9192 100.843C61.2985 101.032 61.9875 101.228 62.9863 101.431C63.5932 101.557 64.0673 101.677 64.4087 101.791C64.7627 101.892 65.1293 102.057 65.5086 102.284C65.8879 102.499 66.166 102.79 66.343 103.156C66.52 103.523 66.6085 103.978 66.6085 104.522C66.6085 105.483 66.2545 106.222 65.5465 106.741C64.8385 107.246 63.903 107.499 62.7398 107.499Z" fill="#737373"/>
</svg>
