<svg width="79" height="114" viewBox="0 0 79 114" fill="none" xmlns="http://www.w3.org/2000/svg">
<path d="M46.4626 48.441L39.825 43.6999L33.1875 48.441V33.2695C33.1875 32.7665 33.3873 32.2842 33.743 31.9285C34.0986 31.5728 34.581 31.373 35.0839 31.373H44.5661C45.0691 31.373 45.5515 31.5728 45.9071 31.9285C46.2628 32.2842 46.4626 32.7665 46.4626 33.2695V48.441Z" stroke="#0F1115" stroke-width="1.89644" stroke-linecap="round" stroke-linejoin="round"/>
<circle cx="39.3511" cy="39.4351" r="38.877" stroke="#0F1115" stroke-width="0.94822"/>
<path d="M4.11436 107.215V93.6553H9.86058C11.2892 93.6553 12.3765 94.0472 13.1225 94.8311C13.704 95.4379 13.9948 96.2092 13.9948 97.1447C13.9948 98.586 13.2678 99.5343 11.8139 99.9894V100.046C12.6231 100.236 13.2805 100.615 13.7862 101.184C14.2919 101.74 14.5448 102.455 14.5448 103.327C14.5448 104.364 14.2161 105.23 13.5586 105.925C12.7621 106.785 11.6306 107.215 10.164 107.215H4.11436ZM5.82116 105.679H10.0882C11.0237 105.679 11.7317 105.451 12.2122 104.996C12.6167 104.566 12.819 104.041 12.819 103.422C12.819 102.6 12.5598 101.974 12.0415 101.544C11.5231 101.115 10.8341 100.9 9.97437 100.9H5.82116V105.679ZM5.82116 99.4584H9.65197C10.4738 99.4584 11.1186 99.2624 11.5863 98.8705C12.0541 98.4786 12.288 97.9349 12.288 97.2396C12.288 96.5821 12.0731 96.0701 11.6432 95.7035C11.226 95.3242 10.6381 95.1345 9.87954 95.1345H5.82116V99.4584ZM20.2826 107.48C18.8286 107.48 17.6718 106.994 16.8121 106.02C15.965 105.034 15.5415 103.801 15.5415 102.322C15.5415 100.868 15.9713 99.648 16.831 98.6619C17.7034 97.6631 18.8223 97.1637 20.1877 97.1637C21.629 97.1637 22.7416 97.6694 23.5255 98.6809C24.3093 99.6797 24.7013 101.013 24.7013 102.682H17.1155C17.1787 103.719 17.4821 104.566 18.0258 105.224C18.5821 105.868 19.3343 106.191 20.2826 106.191C21.7491 106.191 22.6531 105.521 22.9945 104.181H24.4927C24.2651 105.23 23.7846 106.045 23.0514 106.627C22.3181 107.196 21.3951 107.48 20.2826 107.48ZM22.2359 99.2119C21.7428 98.6556 21.0601 98.3774 20.1877 98.3774C19.3154 98.3774 18.62 98.6682 18.1016 99.2498C17.5959 99.8314 17.2799 100.59 17.1534 101.526H23.0514C23.0008 100.539 22.729 99.7682 22.2359 99.2119ZM27.7394 97.4102V99.0412H27.7773C28.0934 98.5228 28.5043 98.1056 29.01 97.7895C29.5157 97.4608 30.0784 97.2965 30.6979 97.2965C30.9254 97.2965 31.134 97.3344 31.3237 97.4102V98.8895H31.2668C31.0772 98.8263 30.8496 98.7946 30.5841 98.7946C29.8002 98.7946 29.1301 99.0728 28.5738 99.6291C28.0176 100.173 27.7394 100.887 27.7394 101.772V107.215H26.2033V97.4102H27.7394ZM40.0329 107.31C39.0594 107.31 38.4968 106.823 38.3451 105.849H38.3261C37.517 106.886 36.4297 107.404 35.0643 107.404C34.0908 107.404 33.2943 107.171 32.6748 106.703C32.0552 106.235 31.7455 105.559 31.7455 104.674C31.7455 104.218 31.815 103.827 31.9541 103.498C32.1058 103.156 32.2955 102.885 32.523 102.682C32.7506 102.467 33.0604 102.284 33.4523 102.132C33.8569 101.968 34.2425 101.848 34.6091 101.772C34.9758 101.684 35.4436 101.595 36.0125 101.507C36.3791 101.456 36.6383 101.418 36.79 101.393C36.9544 101.355 37.163 101.304 37.4159 101.241C37.6687 101.165 37.8457 101.083 37.9469 100.995C38.048 100.906 38.1428 100.786 38.2313 100.634C38.3198 100.482 38.3641 100.305 38.3641 100.103C38.3641 99.5469 38.1681 99.1234 37.7762 98.8326C37.3969 98.5291 36.8596 98.3774 36.1642 98.3774C34.5838 98.3774 33.7684 99.0981 33.7178 100.539H32.2386C32.2639 99.5406 32.6052 98.7378 33.2626 98.1309C33.9327 97.524 34.8936 97.2206 36.1452 97.2206C38.56 97.2206 39.7674 98.2573 39.7674 100.331V104.996C39.7674 105.426 39.837 105.729 39.976 105.906C40.1278 106.083 40.4059 106.128 40.8105 106.039H40.8674V107.158C40.6145 107.259 40.3364 107.31 40.0329 107.31ZM35.4056 106.229C36.3538 106.229 37.0871 105.957 37.6055 105.413C38.1239 104.857 38.383 104.25 38.383 103.593V101.924C37.9152 102.215 37.1693 102.455 36.1452 102.644C35.766 102.72 35.4688 102.783 35.2539 102.834C35.039 102.872 34.7924 102.948 34.5143 103.062C34.2362 103.163 34.0275 103.277 33.8885 103.403C33.7494 103.529 33.6293 103.7 33.5282 103.915C33.427 104.117 33.3764 104.358 33.3764 104.636C33.3764 105.698 34.0528 106.229 35.4056 106.229ZM41.1898 98.6619V97.4102H42.6121V94.3191H44.1482V97.4102H46.0447V98.6619H44.1482V105.034C44.1482 105.641 44.4769 105.944 45.1344 105.944C45.4125 105.944 45.6843 105.9 45.9498 105.811H46.0067V107.139C45.5895 107.227 45.1786 107.272 44.774 107.272C43.3327 107.272 42.6121 106.64 42.6121 105.375V98.6619H41.1898ZM55.4063 107.215H53.8701V105.868H53.8322C53.061 106.918 52.0748 107.442 50.8738 107.442C49.8623 107.442 49.0595 107.158 48.4653 106.589C47.8711 106.007 47.574 105.211 47.574 104.2V97.4102H49.1101V104.162C49.1101 104.794 49.2997 105.287 49.679 105.641C50.0709 105.995 50.6146 106.172 51.3099 106.172C52.0812 106.172 52.7007 105.913 53.1685 105.394C53.6362 104.876 53.8701 104.225 53.8701 103.441V97.4102H55.4063V107.215ZM59.0196 97.4102V98.6998H59.0575C59.8161 97.6884 60.8528 97.1827 62.1677 97.1827C63.2044 97.1827 64.0135 97.4545 64.5951 97.9981C65.1767 98.5418 65.4675 99.3193 65.4675 100.331V107.215H63.9313V100.464C63.9313 99.8314 63.7354 99.3446 63.3434 99.0033C62.9515 98.6493 62.4079 98.4723 61.7125 98.4723C60.9286 98.4723 60.2839 98.7251 59.7781 99.2308C59.2724 99.7365 59.0196 100.388 59.0196 101.184V107.215H57.4834V97.4102H59.0196ZM71.4094 110.477C70.1577 110.477 69.1716 110.237 68.4509 109.756C67.7429 109.288 67.3447 108.625 67.2562 107.765H68.6785C68.8176 108.764 69.7152 109.263 71.3715 109.263C73.2426 109.263 74.1782 108.422 74.1782 106.741V105.356H74.1403C73.7483 105.862 73.3311 106.241 72.8886 106.494C72.4461 106.747 71.8961 106.873 71.2387 106.873C69.9744 106.873 68.944 106.418 68.1475 105.508C67.351 104.598 66.9528 103.435 66.9528 102.019C66.9528 100.539 67.351 99.3636 68.1475 98.4912C68.9567 97.6189 69.9555 97.1827 71.1439 97.1827C72.4335 97.1827 73.4323 97.6757 74.1403 98.6619H74.1782V97.4102H75.7143V106.684C75.7143 107.935 75.3287 108.877 74.5575 109.51C73.7989 110.154 72.7495 110.477 71.4094 110.477ZM71.3146 105.584C73.2995 105.584 74.292 104.37 74.292 101.943C74.292 99.6291 73.2932 98.4723 71.2956 98.4723C70.398 98.4723 69.7089 98.7946 69.2285 99.4394C68.7607 100.084 68.5268 100.95 68.5268 102.038C68.5268 103.125 68.767 103.991 69.2475 104.636C69.7279 105.268 70.4169 105.584 71.3146 105.584Z" fill="#737373"/>
</svg>
