<svg width="47" height="47" viewBox="0 0 47 47" fill="none" xmlns="http://www.w3.org/2000/svg">
<path d="M37.4817 24.1317C36.844 24.1317 36.2206 24.3208 35.6903 24.6751C35.1601 25.0294 34.7468 25.533 34.5028 26.1222C34.2587 26.7114 34.1949 27.3597 34.3193 27.9851C34.4437 28.6106 34.7508 29.1851 35.2017 29.6361C35.6527 30.087 36.2272 30.3941 36.8527 30.5185C37.4781 30.6429 38.1264 30.5791 38.7156 30.335C39.3048 30.091 39.8084 29.6777 40.1627 29.1474C40.517 28.6172 40.7061 27.9938 40.7061 27.3561C40.705 26.5013 40.3649 25.6818 39.7605 25.0773C39.156 24.4729 38.3365 24.1328 37.4817 24.1317ZM37.4817 29.9033C36.9781 29.9033 36.4859 29.7539 36.0672 29.4742C35.6485 29.1944 35.3221 28.7968 35.1294 28.3315C34.9367 27.8663 34.8863 27.3544 34.9845 26.8605C35.0828 26.3666 35.3253 25.9129 35.6813 25.5569C36.0374 25.2008 36.491 24.9583 36.9849 24.86C37.4788 24.7618 37.9907 24.8122 38.456 25.0049C38.9212 25.1976 39.3189 25.5239 39.5986 25.9426C39.8784 26.3613 40.0278 26.8535 40.0278 27.3571C40.0279 27.6915 39.9622 28.0227 39.8343 28.3318C39.7064 28.6408 39.5189 28.9216 39.2824 29.1582C39.046 29.3947 38.7653 29.5823 38.4563 29.7104C38.1473 29.8384 37.8161 29.9043 37.4817 29.9043V29.9033ZM38.2965 27.3571C38.2965 27.5182 38.2487 27.6758 38.1592 27.8098C38.0697 27.9438 37.9424 28.0482 37.7936 28.1099C37.6447 28.1716 37.4809 28.1878 37.3228 28.1563C37.1647 28.1249 37.0195 28.0473 36.9056 27.9334C36.7916 27.8194 36.714 27.6742 36.6826 27.5162C36.6511 27.3581 36.6673 27.1943 36.7289 27.0454C36.7906 26.8965 36.895 26.7693 37.029 26.6797C37.163 26.5902 37.3205 26.5424 37.4817 26.5424C37.6978 26.5424 37.905 26.6282 38.0578 26.781C38.2106 26.9338 38.2965 27.141 38.2965 27.3571ZM13.9209 27.3571C13.9209 26.7194 13.7318 26.096 13.3775 25.5658C13.0232 25.0355 12.5196 24.6223 11.9304 24.3782C11.3413 24.1342 10.693 24.0704 10.0675 24.1948C9.44204 24.3192 8.86752 24.6263 8.41659 25.0772C7.96566 25.5281 7.65857 26.1027 7.53416 26.7281C7.40974 27.3536 7.47359 28.0019 7.71762 28.5911C7.96165 29.1802 8.37492 29.6838 8.90515 30.0381C9.43538 30.3924 10.0588 30.5815 10.6965 30.5816C11.5513 30.5805 12.3709 30.2404 12.9753 29.6359C13.5798 29.0315 13.9199 28.2119 13.9209 27.3571ZM10.6965 29.9033C10.1929 29.9032 9.70067 29.7539 9.28198 29.4741C8.8633 29.1944 8.53697 28.7967 8.34428 28.3315C8.15158 27.8663 8.10117 27.3543 8.19941 26.8604C8.29766 26.3666 8.54015 25.9129 8.89622 25.5568C9.25229 25.2008 9.70594 24.9583 10.1998 24.86C10.6937 24.7618 11.2056 24.8122 11.6709 25.0049C12.1361 25.1976 12.5337 25.5239 12.8135 25.9426C13.0933 26.3613 13.2426 26.8535 13.2426 27.3571C13.2428 27.6916 13.177 28.0228 13.0491 28.3318C12.9212 28.6408 12.7337 28.9216 12.4973 29.1582C12.2608 29.3947 11.9801 29.5824 11.6711 29.7104C11.3621 29.8384 11.0309 29.9043 10.6965 29.9043V29.9033ZM42.4079 27.9C42.4876 27.2275 42.4286 26.5458 42.2347 25.897C42.0407 25.2481 41.7159 24.6459 41.2802 24.1275C40.8445 23.6091 40.3072 23.1854 39.7014 22.8827C39.0956 22.58 38.4342 22.4046 37.7581 22.3673C37.0819 22.3301 36.4053 22.4318 35.7699 22.6662C35.1346 22.9006 34.554 23.2627 34.064 23.7302C33.574 24.1977 33.185 24.7606 32.921 25.3842C32.657 26.0078 32.5236 26.6789 32.529 27.3561C32.5282 28.1072 32.6993 28.8485 33.029 29.5234H15.1492C15.4902 28.8237 15.6617 28.0536 15.6497 27.2753C15.6376 26.497 15.4424 25.7325 15.0799 25.0438C14.7174 24.355 14.1977 23.7613 13.563 23.3107C12.9283 22.8602 12.1963 22.5655 11.4265 22.4505C10.6567 22.3356 9.8706 22.4036 9.13194 22.649C8.39328 22.8944 7.72282 23.3104 7.17486 23.8632C6.6269 24.416 6.21686 25.0901 5.97796 25.8309C5.73905 26.5717 5.678 27.3583 5.79975 28.1271C3.44819 27.1391 1.92969 25.5228 1.92969 22.9665C1.92969 20.3186 9.90408 16.5942 14.976 16.4189V19.5487C14.976 20.1532 15.2162 20.7329 15.6436 21.1604C16.0711 21.5878 16.6508 21.828 17.2554 21.828H21.6173C22.1559 21.8272 22.6768 21.6352 23.0871 21.2862C23.4975 20.9373 23.7706 20.454 23.8579 19.9225C23.8579 19.9225 23.7092 17.9334 23.2325 17.58L23.5453 17.3468L25.7919 19.9245H34.4304C40.3048 19.9225 45.0742 22.0744 45.0742 24.7223C45.0742 25.9445 44.0669 27.0536 42.4079 27.9ZM11.5113 27.3561C11.5113 27.5172 11.4635 27.6748 11.3739 27.8088C11.2844 27.9427 11.1572 28.0472 11.0083 28.1089C10.8594 28.1705 10.6956 28.1867 10.5375 28.1552C10.3795 28.1238 10.2343 28.0462 10.1203 27.9322C10.0064 27.8183 9.92878 27.6731 9.89734 27.515C9.8659 27.357 9.88204 27.1932 9.94371 27.0443C10.0054 26.8954 10.1098 26.7681 10.2438 26.6786C10.3778 26.5891 10.5353 26.5413 10.6965 26.5413C10.8036 26.5413 10.9096 26.5624 11.0085 26.6034C11.1074 26.6444 11.1973 26.7045 11.273 26.7803C11.3486 26.8561 11.4086 26.946 11.4495 27.045C11.4904 27.1439 11.5114 27.25 11.5113 27.3571V27.3561Z" fill="#0F1115"/>
</svg>
